<?xml version="1.0" encoding="UTF-8" standalone="no"?>
<!-- Uploaded to: SVG Repo, www.svgrepo.com, Generator: SVG Repo Mixer Tools -->

<svg
   width="800px"
   height="800px"
   viewBox="0 0 24 24"
   version="1.1"
   id="svg6"
   sodipodi:docname="camera-cfg.svg"
   inkscape:version="1.1.2 (0a00cf5339, 2022-02-04)"
   xmlns:inkscape="http://www.inkscape.org/namespaces/inkscape"
   xmlns:sodipodi="http://sodipodi.sourceforge.net/DTD/sodipodi-0.dtd"
   xmlns="http://www.w3.org/2000/svg"
   xmlns:svg="http://www.w3.org/2000/svg">
  <defs
     id="defs10" />
  <sodipodi:namedview
     id="namedview8"
     pagecolor="#000000"
     bordercolor="#666666"
     borderopacity="1.0"
     inkscape:pageshadow="2"
     inkscape:pageopacity="0"
     inkscape:pagecheckerboard="0"
     showgrid="false"
     inkscape:zoom="0.70875"
     inkscape:cx="400"
     inkscape:cy="400"
     inkscape:window-width="1366"
     inkscape:window-height="706"
     inkscape:window-x="1024"
     inkscape:window-y="0"
     inkscape:window-maximized="1"
     inkscape:current-layer="svg6"
     inkscape:snap-to-guides="true" />
  <path
     d="M 5.9539153,7.3948959 A 1.9396084,2.0254018 0 0 1 7.021164,7.6468597 l 8.027566,4.8454593 a 1.8560847,1.9381835 0 0 1 0.677471,2.655311 l -1.392063,2.509948 a 1.8560847,1.9381835 0 0 1 -2.533556,0.717128 l -1.670477,-0.969092 a 2.3108254,2.4130386 0 0 1 -1.0765283,0.969092 v 1.676529 A 1.8560847,1.9381835 0 0 1 7.197492,21.989418 H 2.3809523 V 20.051235 H 7.197492 V 18.374706 A 2.3108254,2.4130386 0 0 1 6.0931217,14.944121 L 3.7451745,13.529247 A 1.8560847,1.9381835 0 0 1 3.0584233,10.873936 L 4.4504867,8.3639877 A 1.8560847,1.9381835 0 0 1 5.926074,7.3948959 m 11.099386,7.9756261 3.916339,0.678363 -0.696031,1.25982 -1.856086,3.353058 -0.696031,1.259818 -2.524275,-3.198002 z"
     id="path2"
     style="fill:#ffffff;fill-opacity:1;stroke-width:0.948346" />
  <rect
     width="24"
     height="24"
     fill="none"
     id="rect4" />
  <style
     type="text/css"
     id="style12">
	.st0{display:none;}
	.st1{fill:#FFFFFF;}
	.st2{fill:none;stroke:#000000;stroke-width:2;stroke-linecap:round;stroke-linejoin:round;stroke-miterlimit:10;}
	.st3{fill:#FFF8FA;}
	.st4{stroke:#000000;stroke-width:2;stroke-miterlimit:10;}
	.st5{fill:none;stroke:#000000;stroke-miterlimit:10;}
	.st6{fill:none;stroke:#000000;stroke-width:2;stroke-linecap:round;stroke-miterlimit:10;}
	.st7{fill:#231F20;stroke:#000000;stroke-width:0;stroke-miterlimit:10;}
	.st8{fill:#FF0D5C;}
	.st9{display:inline;}
	.st10{fill:none;stroke:#00D8E9;stroke-width:0.25;stroke-linecap:round;stroke-linejoin:round;stroke-miterlimit:10;}
	.st11{fill:none;stroke:#00D8E9;stroke-width:0.25;stroke-linejoin:round;stroke-miterlimit:10;}
	.st12{fill:none;stroke:#00D8E9;stroke-linecap:round;stroke-linejoin:round;stroke-miterlimit:10;}
	.st13{fill:none;stroke:#00D8E9;stroke-linejoin:round;stroke-miterlimit:10;}
</style>
  <g
     id="g80"
     transform="matrix(0.17518451,0,0,0.15608676,9.6615715,-2.1669033)"
     style="fill:#ffffff;fill-opacity:1">
    <g
       id="banana"
       style="fill:#ffffff;fill-opacity:1" />
    <g
       id="Layer_12"
       style="fill:#ffffff;fill-opacity:1" />
    <g
       id="grape"
       style="fill:#ffffff;fill-opacity:1" />
    <g
       id="assasin"
       style="fill:#ffffff;fill-opacity:1" />
    <g
       id="gold"
       style="fill:#ffffff;fill-opacity:1" />
    <g
       id="mage_ass"
       style="fill:#ffffff;fill-opacity:1" />
    <g
       id="fighter"
       style="fill:#ffffff;fill-opacity:1" />
    <g
       id="SUPPORT"
       style="fill:#ffffff;fill-opacity:1" />
    <g
       id="marksman"
       style="fill:#ffffff;fill-opacity:1" />
    <g
       id="JUNGLE"
       style="fill:#ffffff;fill-opacity:1" />
    <g
       id="TANK"
       style="fill:#ffffff;fill-opacity:1" />
    <g
       class="st0"
       id="creditcard"
       style="fill:#ffffff;fill-opacity:1" />
    <g
       class="st0"
       id="CAKE"
       style="fill:#ffffff;fill-opacity:1" />
    <g
       class="st0"
       id="TOPI"
       style="fill:#ffffff;fill-opacity:1" />
    <g
       class="st0"
       id="SPATU"
       style="fill:#ffffff;fill-opacity:1" />
    <g
       class="st0"
       id="SETTING"
       style="fill:#ffffff;fill-opacity:1" />
    <g
       class="st0"
       id="CART"
       style="fill:#ffffff;fill-opacity:1" />
    <g
       class="st0"
       id="k3"
       style="fill:#ffffff;fill-opacity:1" />
    <g
       class="st0"
       id="computer"
       style="fill:#ffffff;fill-opacity:1" />
    <g
       class="st0"
       id="phone"
       style="fill:#ffffff;fill-opacity:1" />
    <g
       class="st0"
       id="location"
       style="fill:#ffffff;fill-opacity:1" />
    <g
       id="koper"
       style="fill:#ffffff;fill-opacity:1">

<g
   id="Layer_29"
   style="fill:#ffffff;fill-opacity:1" />


<path
   d="m 66.8,61.8 c 1.4,-2.2 2.4,-4.6 2.9,-7.1 0,0 0,0 0,0 0,-0.1 0.1,-0.1 0.1,-0.2 0,0 0,-0.1 0.1,-0.1 0,-0.1 0.1,-0.1 0.1,-0.1 0,0 0.1,-0.1 0.1,-0.1 0,0 0.1,0 0.1,-0.1 0.1,0 0.1,-0.1 0.2,-0.1 0,0 0,0 0,0 l 8.9,-1.3 v -5.6 l -8.9,-1.3 c 0,0 -0.1,0 -0.1,0 -0.1,0 -0.1,0 -0.2,-0.1 0,0 -0.1,0 -0.1,-0.1 -0.1,0 -0.1,-0.1 -0.2,-0.1 0,0 -0.1,-0.1 -0.1,-0.1 0,-0.1 -0.1,-0.1 -0.1,-0.2 0,0 0,-0.1 0,-0.1 0,0 0,0 0,0 -0.6,-2.5 -1.5,-4.8 -2.9,-7 0,0 0,0 0,0 0,-0.1 -0.1,-0.1 -0.1,-0.2 0,-0.1 0,-0.1 -0.1,-0.2 0,-0.1 0,-0.1 0,-0.2 0,-0.1 0,-0.1 0,-0.2 0,-0.1 0,-0.1 0.1,-0.1 0,-0.1 0.1,-0.1 0.1,-0.2 0,0 0,0 0,0 l 5.4,-7.3 -4,-4 -7.1,5.4 c 0,0 0,0 0,0 -0.1,0.1 -0.2,0.1 -0.3,0.2 0,0 0,0 0,0 -0.1,0 -0.2,0 -0.2,0 0,0 -0.1,0 -0.1,0 0,0 -0.1,0 -0.1,0 -0.1,0 -0.2,0 -0.3,-0.1 0,0 0,0 -0.1,0 0,0 0,0 0,0 -2.1,-1.4 -4.5,-2.3 -6.9,-2.9 h -0.7 l -1.4,-9.9 h -5.6 l -1.4,9.9 H 43 c -2.5,0.6 -4.8,1.5 -6.9,2.9 0,0 0,0 0,0 0,0 0,0 -0.1,0 -0.1,0 -0.2,0.1 -0.3,0.1 0,0 -0.1,0 -0.1,0 0,0 -0.1,0 -0.1,0 -0.1,0 -0.2,0 -0.2,0 0,0 0,0 0,0 -0.1,0 -0.2,-0.1 -0.3,-0.2 0,0 0,0 0,0 l -7.3,-5.4 -4,4 5.4,7.3 c 0,0 0,0 0,0 0,0.1 0.1,0.1 0.1,0.2 0,0 0.1,0.1 0.1,0.1 0,0.1 0,0.1 0,0.2 0,0.1 0,0.1 0,0.2 0,0.1 0,0.1 -0.1,0.2 0,0.1 0,0.1 -0.1,0.2 0,0 0,0 0,0 -1.4,2.2 -2.4,4.5 -2.9,7 0,0 0,0 0,0 0,0 0,0.1 0,0.1 0,0.1 -0.1,0.2 -0.1,0.2 0,0 -0.1,0.1 -0.1,0.1 -0.1,0.1 -0.1,0.1 -0.2,0.2 0,0 -0.1,0 -0.1,0.1 -0.1,0 -0.1,0.1 -0.2,0.1 0,0 0,0 -0.1,0 l -8.9,1.3 v 5.6 l 8.9,1.3 c 0,0 0,0 0,0 0.1,0 0.2,0 0.2,0.1 0,0 0.1,0 0.1,0.1 0.1,0 0.1,0.1 0.1,0.1 0,0 0.1,0.1 0.1,0.1 0,0 0,0.1 0.1,0.1 0,0.1 0.1,0.1 0.1,0.2 0,0 0,0 0,0 0.5,2.5 1.5,4.9 2.9,7.1 l 0.2,0.2 v 0.3 0.3 l -5.6,7.5 4,4 7.2,-5.4 c 0,0 0,0 0,0 0.1,0 0.1,-0.1 0.2,-0.1 0,0 0.1,0 0.1,-0.1 0.1,0 0.1,0 0.2,0 0.1,0 0.1,0 0.2,0 0.1,0 0.1,0 0.1,0.1 0.1,0 0.2,0 0.2,0.1 0,0 0,0 0,0 2.2,1.4 4.6,2.4 7.1,3 0,0 0,0 0,0 0.1,0 0.1,0 0.2,0.1 0.1,0 0.1,0.1 0.2,0.1 0,0 0.1,0.1 0.1,0.1 0.1,0.1 0.1,0.1 0.2,0.2 0,0 0,0.1 0.1,0.1 0,0.1 0.1,0.2 0.1,0.2 0,0 0,0 0,0 l 1.3,8.9 h 5.6 L 52,72.6 c 0,0 0,0 0,0 0,-0.1 0.1,-0.2 0.1,-0.3 0,0 0,-0.1 0,-0.1 0.1,-0.1 0.1,-0.2 0.2,-0.2 0,0 0,0 0,-0.1 0.1,0 0.1,-0.1 0.2,-0.1 0,0 0.1,-0.1 0.1,-0.1 0,0 0,0 0,0 2.5,-0.6 4.9,-1.6 7.1,-3 0,0 0,0 0,0 0.1,0 0.1,-0.1 0.2,-0.1 0,0 0.1,0 0.1,0 0.1,0 0.1,0 0.2,0 0.1,0 0.1,0 0.2,0 0.1,0 0.1,0 0.2,0.1 0.1,0 0.1,0.1 0.2,0.1 0,0 0,0 0,0 l 7.2,5.4 4,-4 -5.1,-7.2 c 0,0 0,-0.1 0,-0.1 0,-0.1 -0.1,-0.1 -0.1,-0.2 0,-0.1 0,-0.1 0,-0.2 0,0 0,-0.1 0,-0.1 V 62.1 Z M 62,51.4 C 61.2,57.7 56.1,62.8 49.8,63.6 40.6,64.8 32.8,57 34,47.7 c 0.8,-6.3 5.9,-11.4 12.2,-12.2 9.2,-1.1 17,6.7 15.8,15.9 z"
   id="path36"
   style="fill:#ffffff;fill-opacity:1" />


</g>
    <g
       class="st0"
       id="guide"
       style="fill:#ffffff;fill-opacity:1" />
    <g
       id="MAGICAL"
       style="fill:#ffffff;fill-opacity:1" />
    <g
       id="phisical"
       style="fill:#ffffff;fill-opacity:1" />
    <g
       id="mango"
       style="fill:#ffffff;fill-opacity:1" />
    <g
       id="orange"
       style="fill:#ffffff;fill-opacity:1" />
  </g>
</svg>
